<?xml version="1.0" encoding="utf-8"?>
<!-- Generator: Adobe Illustrator 16.0.0, SVG Export Plug-In . SVG Version: 6.00 Build 0)  -->
<!DOCTYPE svg PUBLIC "-//W3C//DTD SVG 1.1//EN" "http://www.w3.org/Graphics/SVG/1.1/DTD/svg11.dtd">
<svg version="1.1" id="Layer_1" xmlns="http://www.w3.org/2000/svg" xmlns:xlink="http://www.w3.org/1999/xlink" x="0px" y="0px"
	 width="283.46px" height="283.46px" viewBox="0 0 283.46 283.46" enable-background="new 0 0 283.46 283.46" xml:space="preserve">
<text transform="matrix(1 0 0 1 45.4214 192.667)" stroke="#000000" stroke-miterlimit="10" font-family="'ElectroShackle'" font-size="31.8811">electrofy</text>
<g>
	<g>
		<defs>
			<path id="SVGID_1_" d="M170.428,133.681c3.875,3.302-1.383,8.259-1.383,8.259c-20.702,23.846-45.072,7.779-45.072,7.779
				l30.593-43.256h-13.48l11.266-18.313c2.921,0.628,5.894,1.579,8.545,2.965c2.127,1.113,4.101,2.537,5.88,4.146
				c1.498,1.356,2.804,2.886,3.88,4.597c0.808,1.286,1.538,2.645,2.134,4.045c0.526,1.238,0.846,2.533,1.12,3.847
				c0.409,1.971,0.516,3.893-0.124,5.828c-0.806,2.433-2.271,4.659-3.655,6.795c-1.557,2.403-3.223,4.73-5.023,6.956
				c-1.646,2.029-3.382,3.98-5.092,5.952c-1.008,1.161-2.007,2.33-3.007,3.497c-0.078,0.092-0.167,0.181-0.237,0.277
				c0.038,0.084,0.076,0.168,0.116,0.253c1.76-0.703,3.525-1.39,5.276-2.116c1.594-0.658,3.131-1.485,4.766-2.004
				C166.93,133.188,168.867,132.533,170.428,133.681"/>
		</defs>
		<clipPath id="SVGID_2_">
			<use xlink:href="#SVGID_1_"  overflow="visible"/>
		</clipPath>
		<linearGradient id="SVGID_3_" gradientUnits="userSpaceOnUse" x1="94.9692" y1="119.876" x2="191.2559" y2="119.876">
			<stop  offset="0" style="stop-color:#C0529C"/>
			<stop  offset="1" style="stop-color:#9ED8E3"/>
		</linearGradient>
		<path clip-path="url(#SVGID_2_)" fill="url(#SVGID_3_)" d="M191.13,119.875c2.065,26.773-21.526,48.083-48.08,48.083
			s-48.081-21.527-48.081-48.083c0-26.554,21.527-48.081,48.081-48.081S189.091,93.4,191.13,119.875z"/>
	</g>
	<g>
		<defs>
			<path id="SVGID_4_" d="M137.337,108.304l12.962-20.917c0,0-2.691-0.683-6.594-0.745l0.041-0.067c0,0-2.852,0.079-4.873,0.167
				c0.002-0.003,0.003-0.007,0.005-0.009c-0.451,0.011-0.914,0.042-1.383,0.081c-0.185,0.013-0.333,0.025-0.434,0.037
				c-9.403,0.98-22.249,7.822-27.205,22.37c-5.036,14.781,0.998,30.644,10.533,37.913l2.833-5.537
				c-6.65-6.488-11.139-15.049-9.599-24.846c1.858-11.817,10.028-21.533,21.616-24.218c0.098-0.022,0.207-0.057,0.313-0.096
				l0.003,0.002c0,0,0.953-0.219,2.06-0.306c-4.722,9.129-13.235,26.638-13.375,26.948c4.158,0,8.185,0,12.388,0
				c-6.348,12.303-8.26,17.216-14.525,29.354c0.056,0.042,0.11,0.082,0.166,0.124l28.432-40.011
				C150.653,108.467,142.686,108.304,137.337,108.304z"/>
		</defs>
		<clipPath id="SVGID_5_">
			<use xlink:href="#SVGID_4_"  overflow="visible"/>
		</clipPath>
		<linearGradient id="SVGID_6_" gradientUnits="userSpaceOnUse" x1="103.7563" y1="120.7803" x2="180.5674" y2="120.7803">
			<stop  offset="0" style="stop-color:#C0529C"/>
			<stop  offset="1" style="stop-color:#9ED8E3"/>
		</linearGradient>
		<circle clip-path="url(#SVGID_5_)" fill="url(#SVGID_6_)" cx="142.162" cy="120.78" r="38.406"/>
	</g>
</g>
</svg>
